<svg width="21" height="18" viewBox="0 0 21 18" fill="none" xmlns="http://www.w3.org/2000/svg">
<path d="M20.0303 4.28039L17.2457 7.06495C17.1709 9.81717 16.1204 12.5013 14.3375 14.472C12.2491 16.7801 9.3661 18 6.00001 18C2.72701 18 1.03989 16.3506 0.969669 16.2804C0.873723 16.1845 0.8056 16.0643 0.772557 15.9327C0.739514 15.8011 0.742789 15.663 0.782033 15.5331C0.821277 15.4032 0.895019 15.2864 0.995405 15.1951C1.09579 15.1039 1.21906 15.0415 1.35208 15.0148C2.15251 14.8526 4.13935 14.2212 4.98489 13.083C4.07836 12.5603 3.27339 11.8786 2.60851 11.0705C0.256139 8.21404 0.306014 4.62426 0.762107 2.11589C0.787843 1.97429 0.853779 1.84308 0.952046 1.73792C1.05031 1.63277 1.17676 1.55811 1.3163 1.52285C1.45584 1.4876 1.60257 1.49324 1.73899 1.5391C1.87541 1.58495 1.99576 1.6691 2.08567 1.78148C2.11145 1.81354 4.57642 4.83351 8.25001 5.82023V5.25023C8.25794 4.04932 8.74242 2.90071 9.59694 2.05689C10.4515 1.21308 11.6061 0.743117 12.807 0.750326C13.5871 0.761115 14.3511 0.974069 15.0243 1.36838C15.6975 1.7627 16.257 2.32489 16.6479 3.00004H19.5C19.6483 3.00004 19.7934 3.04402 19.9167 3.12643C20.04 3.20884 20.1362 3.32598 20.1929 3.46303C20.2497 3.60008 20.2646 3.75088 20.2356 3.89637C20.2067 4.04186 20.1352 4.1755 20.0303 4.28039Z" fill="#EBEBF5" fill-opacity="0.6"/>
</svg>
