<svg width="22" height="19" viewBox="0 0 22 19" fill="none" xmlns="http://www.w3.org/2000/svg">
<path d="M20.6803 0.975135C20.4736 0.796689 20.222 0.678186 19.9528 0.632461C19.6837 0.586736 19.4071 0.615532 19.1531 0.715728L1.85087 7.51307C1.54934 7.63158 1.29428 7.84453 1.12385 8.12007C0.953418 8.3956 0.876781 8.71891 0.905402 9.04163C0.934022 9.36435 1.06636 9.66913 1.28262 9.91037C1.49888 10.1516 1.78744 10.3164 2.10512 10.3799L6.50002 11.2591V16.7485C6.49976 17.0453 6.58758 17.3354 6.75235 17.5823C6.91712 17.8291 7.15144 18.0215 7.42562 18.1351C7.69981 18.2487 8.00154 18.2783 8.29259 18.2203C8.58364 18.1623 8.85094 18.0192 9.06061 17.8092L11.4929 15.377L15.1844 18.6254C15.4561 18.8668 15.8069 19.0003 16.1703 19.0008C16.3283 19.0006 16.4853 18.9758 16.6356 18.927C16.8835 18.8484 17.1065 18.7061 17.2823 18.5144C17.458 18.3227 17.5805 18.0883 17.6373 17.8345L21.1636 2.4471C21.2251 2.18101 21.2125 1.90319 21.1273 1.64374C21.0421 1.38428 20.8875 1.1531 20.6803 0.975228V0.975135ZM16.1752 17.4993L8.45096 10.7019L19.5739 2.66873L16.1752 17.4993Z" fill="#EBEBF5" fill-opacity="0.6"/>
</svg>
