<svg width="20" height="20" viewBox="0 0 20 20" fill="none" xmlns="http://www.w3.org/2000/svg">
<path d="M10 5.5C9.10998 5.5 8.23995 5.76392 7.49993 6.25839C6.75991 6.75285 6.18314 7.45566 5.84254 8.27792C5.50195 9.10019 5.41283 10.005 5.58647 10.8779C5.7601 11.7508 6.18868 12.5526 6.81802 13.182C7.44736 13.8113 8.24918 14.2399 9.12209 14.4135C9.99501 14.5872 10.8998 14.4981 11.7221 14.1575C12.5443 13.8169 13.2471 13.2401 13.7416 12.5001C14.2361 11.76 14.5 10.89 14.5 10C14.4987 8.80694 14.0241 7.66312 13.1805 6.8195C12.3369 5.97588 11.1931 5.50134 10 5.5ZM10 13C9.40666 13 8.82664 12.8241 8.33329 12.4944C7.83994 12.1648 7.45542 11.6962 7.22836 11.1481C7.0013 10.5999 6.94189 9.99667 7.05764 9.41473C7.1734 8.83279 7.45912 8.29824 7.87868 7.87868C8.29824 7.45912 8.83279 7.1734 9.41473 7.05764C9.99667 6.94189 10.5999 7.0013 11.1481 7.22836C11.6962 7.45542 12.1648 7.83994 12.4944 8.33329C12.8241 8.82664 13 9.40666 13 10C12.9991 10.7954 12.6827 11.5579 12.1203 12.1203C11.5579 12.6827 10.7954 12.9991 10 13ZM14.125 0.625H5.875C4.4831 0.626588 3.14867 1.18022 2.16444 2.16444C1.18022 3.14867 0.626588 4.4831 0.625 5.875V14.125C0.626588 15.5169 1.18022 16.8513 2.16444 17.8356C3.14867 18.8198 4.4831 19.3734 5.875 19.375H14.125C15.5169 19.3734 16.8513 18.8198 17.8356 17.8356C18.8198 16.8513 19.3734 15.5169 19.375 14.125V5.875C19.3734 4.4831 18.8198 3.14867 17.8356 2.16444C16.8513 1.18022 15.5169 0.626588 14.125 0.625ZM17.875 14.125C17.8739 15.1192 17.4784 16.0724 16.7754 16.7754C16.0724 17.4784 15.1192 17.8739 14.125 17.875H5.875C4.88078 17.8739 3.9276 17.4784 3.22458 16.7754C2.52156 16.0724 2.12612 15.1192 2.125 14.125V5.875C2.12612 4.88078 2.52156 3.9276 3.22458 3.22458C3.9276 2.52156 4.88078 2.12612 5.875 2.125H14.125C15.1192 2.12612 16.0724 2.52156 16.7754 3.22458C17.4784 3.9276 17.8739 4.88078 17.875 5.875V14.125ZM16 5.125C16 5.3475 15.934 5.56501 15.8104 5.75002C15.6868 5.93502 15.5111 6.07922 15.3055 6.16436C15.1 6.24951 14.8738 6.27179 14.6555 6.22838C14.4373 6.18498 14.2368 6.07783 14.0795 5.9205C13.9222 5.76316 13.815 5.56271 13.7716 5.34448C13.7282 5.12625 13.7505 4.90005 13.8356 4.69448C13.9208 4.48891 14.065 4.31321 14.25 4.1896C14.435 4.06598 14.6525 4 14.875 4C15.1734 4 15.4595 4.11853 15.6705 4.3295C15.8815 4.54048 16 4.82663 16 5.125Z" fill="#EBEBF5" fill-opacity="0.6"/>
</svg>
